<?xml version="1.0" encoding="utf-8"?>
<!-- Generator: Adobe Illustrator 25.0.0, SVG Export Plug-In . SVG Version: 6.00 Build 0)  -->
<svg version="1.1" id="Layer_1" xmlns="http://www.w3.org/2000/svg" xmlns:xlink="http://www.w3.org/1999/xlink" x="0px" y="0px"
	 viewBox="0 0 1920 1080" style="enable-background:new 0 0 1920 1080;" xml:space="preserve">
<style type="text/css">
	.st0{enable-background:new    ;}
	.st1{fill:#333333;}
</style>
<g class="st0">
	<path class="st1" d="M574.4,479.8h38.7v166.3h-38.7v-17.4c-17,19.8-37.9,22.5-49.8,22.5c-51.4,0-80.6-42.7-80.6-88.5
		c0-54.1,37.1-87.3,81-87.3c12.2,0,33.6,3.2,49.4,23.7V479.8z M483.5,563.5c0,28.8,18.2,52.9,46.2,52.9c24.5,0,47-17.8,47-52.5
		c0-36.3-22.5-53.7-47-53.7C501.7,510.2,483.5,533.9,483.5,563.5z"/>
	<path class="st1" d="M754.9,479.8h38.7v152.9c0,39.1-4.3,67.2-27.3,86.5c-10.7,8.7-28,17.8-55.3,17.8c-19.4,0-38.7-4.7-54.5-20.5
		c-12.2-12.2-21.7-31.6-24.5-51.7h37.5c1.6,9.1,6.3,19.8,12.2,26.1c4.7,5.1,14.2,11.5,30,11.5c16.2,0,25.7-6.3,30.4-11.1
		c12.6-12.2,12.6-29.6,12.6-41.9v-21.7c-17.8,22.5-39.5,23.7-50.6,23.7c-21.3,0-39.1-5.9-54.9-22.5c-15-15.8-24.9-38.3-24.9-66
		c0-30.4,11.5-51.4,24.5-64.4c16.6-17,36.3-22.9,56.5-22.9c16.6,0,35.2,5.5,49.4,22.5V479.8z M681,521.3c-9.9,9.1-17,24.5-17,42.3
		c0,16.6,6.3,32.8,16.6,41.9c7.1,6.3,17.8,11.1,29.6,11.1c12.2,0,22.9-3.6,32.4-13.4c11.5-12.2,14.6-26.5,14.6-39.1
		c0-18.6-5.9-32.4-15.8-41.9c-9.5-9.5-20.1-11.9-31.2-11.9C699.6,510.2,689.7,513,681,521.3z"/>
	<path class="st1" d="M962.7,608.2c-7.1,12.6-17.4,23.7-28,30.4c-13.4,8.7-31.2,12.6-49,12.6c-22.1,0-40.3-5.5-56.1-21.3
		s-24.5-38.7-24.5-63.6c0-25.7,9.1-50.6,26.5-68.3c13.8-13.8,32-22.5,55.7-22.5c26.5,0,43.5,11.5,53.3,21.7
		c21.3,22.1,23.3,52.9,23.3,70.3v4.7H844.6c0.8,11.9,5.9,25.3,14.2,33.6c9.1,9.1,20.1,10.7,29.6,10.7c10.7,0,18.6-2.4,26.5-8.3
		c6.7-5.1,11.9-11.9,15.4-18.2L962.7,608.2z M924.4,540.6c-1.6-9.1-5.9-17-11.9-22.5c-5.1-4.7-13.4-9.5-26.1-9.5
		c-13.4,0-22.1,5.5-27.3,10.7c-5.5,5.1-9.9,13-11.9,21.3H924.4z"/>
	<path class="st1" d="M974.9,479.8h38.7v15.4c16.6-18.6,35.6-19.8,45-19.8c30.8,0,43.8,15.4,49,22.5c6.3,9.1,10.3,20.5,10.3,46.2
		v101.9h-38.7v-92.4c0-42.3-15.8-43.5-30.4-43.5c-17.4,0-35.2,2.4-35.2,56.1v79.8h-38.7V479.8z"/>
	<path class="st1" d="M1259.7,358.1h38.7v288h-38.7v-17.4c-17,19.8-37.9,22.5-49.8,22.5c-51.4,0-80.6-42.7-80.6-88.5
		c0-54.1,37.1-87.3,81-87.3c12.2,0,33.6,3.2,49.4,23.7V358.1z M1168.9,563.5c0,28.8,18.2,52.9,46.2,52.9c24.5,0,47-17.8,47-52.5
		c0-36.3-22.5-53.7-47-53.7C1187,510.2,1168.9,533.9,1168.9,563.5z"/>
	<path class="st1" d="M1440.2,479.8h38.7v166.3h-38.7v-17.4c-17,19.8-37.9,22.5-49.8,22.5c-51.4,0-80.6-42.7-80.6-88.5
		c0-54.1,37.1-87.3,81-87.3c12.2,0,33.6,3.2,49.4,23.7V479.8z M1349.4,563.5c0,28.8,18.2,52.9,46.2,52.9c24.5,0,47-17.8,47-52.5
		c0-36.3-22.5-53.7-47-53.7C1367.6,510.2,1349.4,533.9,1349.4,563.5z"/>
</g>
</svg>
